<?xml version="1.0" encoding="utf-8"?>
<!-- Generator: Adobe Illustrator 18.0.0, SVG Export Plug-In . SVG Version: 6.00 Build 0)  -->
<!DOCTYPE svg PUBLIC "-//W3C//DTD SVG 1.1//EN" "http://www.w3.org/Graphics/SVG/1.1/DTD/svg11.dtd">
<svg version="1.1" id="layer" xmlns="http://www.w3.org/2000/svg" xmlns:xlink="http://www.w3.org/1999/xlink" x="0px" y="0px"
	 viewBox="0 0 100% 100%" style="enable-background:new 0 0 200 200;" xml:space="preserve">
<pattern  x="-61.764" y="-66.72" width="200" height="200" patternUnits="userSpaceOnUse" id="green-dots" viewBox="16.49 -230.346 200 200" style="overflow:visible;">
	<g>
		<polygon style="fill:none;" points="16.49,-230.346 216.49,-230.346 216.49,-30.346 16.49,-30.346 		"/>
		<g>
			<path style="fill:#B7E195;" d="M242.5-20.94c0,11.322-9.178,20.5-20.5,20.5s-20.5-9.178-20.5-20.5s9.178-20.5,20.5-20.5
				S242.5-32.262,242.5-20.94z"/>
		</g>
		<g>
			<path style="fill:#B7E195;" d="M42.5-20.94c0,11.322-9.178,20.5-20.5,20.5S1.5-9.618,1.5-20.94s9.178-20.5,20.5-20.5
				S42.5-32.262,42.5-20.94z"/>
			<path style="fill:#B7E195;" d="M93.956-27.94c0,6.075-4.925,11-11,11c-6.075,0-11-4.925-11-11s4.925-11,11-11
				C89.031-38.94,93.956-34.015,93.956-27.94z"/>
			<path style="fill:#B7E195;" d="M242.456-20.94c0,11.054-8.961,20.016-20.016,20.016c-11.054,0-20.016-8.961-20.016-20.016
				s8.961-20.016,20.016-20.016C233.495-40.956,242.456-31.995,242.456-20.94z"/>
			<path style="fill:#3D6428;" d="M68.354-23.94c0,6.18-5.01,11.19-11.19,11.19s-11.19-5.01-11.19-11.19s5.01-11.19,11.19-11.19
				S68.354-30.12,68.354-23.94z"/>
			<path style="fill:#284417;" d="M105.456-34.357c0,2.347-1.903,4.25-4.25,4.25c-2.347,0-4.25-1.903-4.25-4.25
				s1.903-4.25,4.25-4.25C103.553-38.607,105.456-36.704,105.456-34.357z"/>
			<path style="fill:#284417;" d="M152.067-31.69c0,3.375-2.736,6.111-6.111,6.111s-6.111-2.736-6.111-6.111
				s2.736-6.111,6.111-6.111S152.067-35.065,152.067-31.69z"/>
			<path style="fill:#284417;" d="M195.956-30.94c0,1.105,0.895,2,2,2s2-0.895,2-2s-0.895-2-2-2S195.956-32.045,195.956-30.94z"/>
			<path style="fill:#284417;" d="M186.956-34.357c0,5.247-4.253,9.5-9.5,9.5s-9.5-4.253-9.5-9.5s4.253-9.5,9.5-9.5
				S186.956-39.604,186.956-34.357z"/>
			<path style="fill:#3D6428;" d="M136.456-31.253c0,6.996-5.671,12.667-12.667,12.667c-6.996,0-12.667-5.671-12.667-12.667
				s5.671-12.667,12.667-12.667C130.785-43.919,136.456-38.248,136.456-31.253z"/>
		</g>
		<g>
			<path style="fill:#B7E195;" d="M42.456-20.94c0,11.054-8.961,20.016-20.016,20.016S2.425-9.886,2.425-20.94
				s8.961-20.016,20.016-20.016S42.456-31.995,42.456-20.94z"/>
		</g>
		<g>
			<path style="fill:#B7E195;" d="M242.5-220.94c0,11.322-9.178,20.5-20.5,20.5s-20.5-9.178-20.5-20.5s9.178-20.5,20.5-20.5
				S242.5-232.262,242.5-220.94z"/>
			<path style="fill:#B7E195;" d="M242.5-20.5C242.5-9.178,233.322,0,222,0s-20.5-9.178-20.5-20.5S210.678-41,222-41
				S242.5-31.822,242.5-20.5z"/>
			<path style="fill:#67BA48;" d="M226-130.107c0,7.18-5.82,13-13,13s-13-5.82-13-13s5.82-13,13-13S226-137.287,226-130.107z"/>
			<path style="fill:#67BA48;" d="M209-64.774c0,4.418,3.582,8,8,8c4.418,0,8-3.582,8-8c0-4.418-3.582-8-8-8
				C212.582-72.774,209-69.192,209-64.774z"/>
			<path style="fill:#284417;" d="M220.456-106.065c0,5.109-4.141,9.25-9.25,9.25c-5.109,0-9.25-4.141-9.25-9.25
				s4.141-9.25,9.25-9.25C216.315-115.315,220.456-111.174,220.456-106.065z"/>
		</g>
		<g>
			<path style="fill:#B7E195;" d="M42.5-220.94c0,11.322-9.178,20.5-20.5,20.5s-20.5-9.178-20.5-20.5s9.178-20.5,20.5-20.5
				S42.5-232.262,42.5-220.94z"/>
			<path style="fill:#B7E195;" d="M42.5-20.5C42.5-9.178,33.322,0,22,0S1.5-9.178,1.5-20.5S10.678-41,22-41S42.5-31.822,42.5-20.5z"
				/>
			<path style="fill:#B7E195;" d="M242.94-20.5c0,11.322-9.178,20.5-20.5,20.5s-20.5-9.178-20.5-20.5s9.178-20.5,20.5-20.5
				S242.94-31.822,242.94-20.5z"/>
			<path style="fill:#B7E195;" d="M93.956-227.94c0,6.075-4.925,11-11,11c-6.075,0-11-4.925-11-11s4.925-11,11-11
				C89.031-238.94,93.956-234.015,93.956-227.94z"/>
			<path style="fill:#B7E195;" d="M93.956-27.5c0,6.075-4.925,11-11,11c-6.075,0-11-4.925-11-11s4.925-11,11-11
				C89.031-38.5,93.956-33.575,93.956-27.5z"/>
			<path style="fill:#B7E195;" d="M75.956-212.94c0,2.209-1.791,4-4,4c-2.209,0-4-1.791-4-4s1.791-4,4-4
				C74.165-216.94,75.956-215.149,75.956-212.94z"/>
			<path style="fill:#B7E195;" d="M35.5-187.94c0,5.247-4.253,9.5-9.5,9.5s-9.5-4.253-9.5-9.5s4.253-9.5,9.5-9.5
				S35.5-193.187,35.5-187.94z"/>
			<path style="fill:#B7E195;" d="M48.456-175.19c0,1.105-0.895,2-2,2c-1.105,0-2-0.895-2-2s0.895-2,2-2
				C47.56-177.19,48.456-176.295,48.456-175.19z"/>
			<path style="fill:#B7E195;" d="M67.206-166.69c0,5.109-4.141,9.25-9.25,9.25s-9.25-4.141-9.25-9.25c0-5.109,4.141-9.25,9.25-9.25
				S67.206-171.799,67.206-166.69z"/>
			<path style="fill:#B7E195;" d="M82.456-186.94c0,2.485-2.015,4.5-4.5,4.5c-2.485,0-4.5-2.015-4.5-4.5c0-2.485,2.015-4.5,4.5-4.5
				C80.441-191.44,82.456-189.426,82.456-186.94z"/>
			<path style="fill:#B7E195;" d="M100.206-222.94c0,2.899,2.351,5.25,5.25,5.25c2.899,0,5.25-2.351,5.25-5.25
				c0-2.9-2.351-5.25-5.25-5.25C102.556-228.19,100.206-225.84,100.206-222.94z"/>
			<path style="fill:#B7E195;" d="M109.706-207.94c0,3.866-3.134,7-7,7c-3.866,0-7-3.134-7-7c0-3.866,3.134-7,7-7
				C106.572-214.94,109.706-211.806,109.706-207.94z"/>
			<path style="fill:#B7E195;" d="M165.123-222.94c0,3.866-3.134,7-7,7s-7-3.134-7-7c0-3.866,3.134-7,7-7
				S165.123-226.806,165.123-222.94z"/>
			<path style="fill:#B7E195;" d="M120.956-200.44c0,2.761-2.239,5-5,5c-2.761,0-5-2.239-5-5c0-2.761,2.239-5,5-5
				C118.717-205.44,120.956-203.202,120.956-200.44z"/>
			<path style="fill:#B7E195;" d="M148.706-182.44c0,8.837-7.163,16-16,16c-8.837,0-16-7.163-16-16c0-8.837,7.163-16,16-16
				C141.542-198.44,148.706-191.277,148.706-182.44z"/>
			<path style="fill:#B7E195;" d="M193.456-185.19c0,6.627-5.373,12-12,12c-6.627,0-12-5.373-12-12c0-6.627,5.373-12,12-12
				C188.083-197.19,193.456-191.818,193.456-185.19z"/>
			<path style="fill:#B7E195;" d="M242.456-220.94c0,11.054-8.961,20.016-20.016,20.016c-11.054,0-20.016-8.961-20.016-20.016
				c0-11.054,8.961-20.016,20.016-20.016C233.495-240.956,242.456-231.995,242.456-220.94z"/>
			<path style="fill:#B7E195;" d="M197.956-220.94c0,3.038-2.462,5.5-5.5,5.5s-5.5-2.462-5.5-5.5s2.462-5.5,5.5-5.5
				S197.956-223.978,197.956-220.94z"/>
			<path style="fill:#B7E195;" d="M166.456-202.69c0,0.966-0.783,1.75-1.75,1.75c-0.966,0-1.75-0.784-1.75-1.75
				c0-0.967,0.784-1.75,1.75-1.75C165.672-204.44,166.456-203.657,166.456-202.69z"/>
			<path style="fill:#B7E195;" d="M74.706-141.44c0,1.519-1.231,2.75-2.75,2.75s-2.75-1.231-2.75-2.75s1.231-2.75,2.75-2.75
				S74.706-142.959,74.706-141.44z"/>
			<path style="fill:#B7E195;" d="M99.456-170.69c0,2.485-2.015,4.5-4.5,4.5c-2.485,0-4.5-2.015-4.5-4.5c0-2.485,2.015-4.5,4.5-4.5
				C97.441-175.19,99.456-173.176,99.456-170.69z"/>
			<path style="fill:#B7E195;" d="M125.706-161.94c0,2.623-2.127,4.75-4.75,4.75s-4.75-2.127-4.75-4.75s2.127-4.75,4.75-4.75
				S125.706-164.564,125.706-161.94z"/>
			<path style="fill:#B7E195;" d="M103.706-140.44c0,1.381-1.119,2.5-2.5,2.5c-1.381,0-2.5-1.119-2.5-2.5c0-1.381,1.119-2.5,2.5-2.5
				C102.587-142.94,103.706-141.821,103.706-140.44z"/>
			<path style="fill:#B7E195;" d="M106.206-127.69c0,4.142-3.358,7.5-7.5,7.5s-7.5-3.358-7.5-7.5c0-4.142,3.358-7.5,7.5-7.5
				S106.206-131.832,106.206-127.69z"/>
			<path style="fill:#B7E195;" d="M88.206-166.19c0,0.828-0.672,1.5-1.5,1.5c-0.828,0-1.5-0.672-1.5-1.5c0-0.828,0.672-1.5,1.5-1.5
				C87.534-167.69,88.206-167.019,88.206-166.19z"/>
			<path style="fill:#B7E195;" d="M175.456-160.19c0,0.966-0.783,1.75-1.75,1.75c-0.966,0-1.75-0.784-1.75-1.75
				c0-0.967,0.784-1.75,1.75-1.75C174.672-161.94,175.456-161.157,175.456-160.19z"/>
			<path style="fill:#B7E195;" d="M177.456-152.19c0,1.105-0.895,2-2,2s-2-0.895-2-2s0.895-2,2-2S177.456-153.295,177.456-152.19z"
				/>
			<path style="fill:#B7E195;" d="M34.206-125.69c0,1.519-1.231,2.75-2.75,2.75c-1.519,0-2.75-1.231-2.75-2.75s1.231-2.75,2.75-2.75
				C32.975-128.44,34.206-127.209,34.206-125.69z"/>
			<path style="fill:#B7E195;" d="M30.956-116.19c0,2.071-1.679,3.75-3.75,3.75s-3.75-1.679-3.75-3.75s1.679-3.75,3.75-3.75
				S30.956-118.261,30.956-116.19z"/>
			<path style="fill:#B7E195;" d="M58.456-114.69c0,3.452-2.798,6.25-6.25,6.25c-3.452,0-6.25-2.798-6.25-6.25
				c0-3.452,2.798-6.25,6.25-6.25C55.658-120.94,58.456-118.142,58.456-114.69z"/>
			<path style="fill:#B7E195;" d="M59.206-101.94c0,1.243-1.007,2.25-2.25,2.25c-1.243,0-2.25-1.007-2.25-2.25
				c0-1.243,1.007-2.25,2.25-2.25C58.199-104.19,59.206-103.183,59.206-101.94z"/>
			<path style="fill:#B7E195;" d="M118.206-109.69c0,5.247-4.253,9.5-9.5,9.5s-9.5-4.253-9.5-9.5s4.253-9.5,9.5-9.5
				S118.206-114.937,118.206-109.69z"/>
			<path style="fill:#B7E195;" d="M166.456-119.94c0,0.966-0.783,1.75-1.75,1.75c-0.966,0-1.75-0.784-1.75-1.75
				s0.784-1.75,1.75-1.75C165.672-121.69,166.456-120.907,166.456-119.94z"/>
			<path style="fill:#B7E195;" d="M202.706-118.19c0,1.105-0.895,2-2,2s-2-0.895-2-2s0.895-2,2-2S202.706-119.295,202.706-118.19z"
				/>
			<path style="fill:#B7E195;" d="M181.706-132.19c0,5.937-4.813,10.75-10.75,10.75c-5.937,0-10.75-4.813-10.75-10.75
				c0-5.937,4.813-10.75,10.75-10.75C176.893-142.94,181.706-138.127,181.706-132.19z"/>
			<path style="fill:#B7E195;" d="M64.456-121.44c0,1.105-0.895,2-2,2c-1.105,0-2-0.895-2-2s0.895-2,2-2
				C63.56-123.44,64.456-122.545,64.456-121.44z"/>
			<path style="fill:#B7E195;" d="M213.956-89.065c0,3.314-2.686,6-6,6c-3.314,0-6-2.686-6-6c0-3.314,2.686-6,6-6
				C211.27-95.065,213.956-92.379,213.956-89.065z"/>
			<path style="fill:#B7E195;" d="M32.456-71.19c0,1.381-1.119,2.5-2.5,2.5c-1.381,0-2.5-1.119-2.5-2.5c0-1.381,1.119-2.5,2.5-2.5
				C31.337-73.69,32.456-72.571,32.456-71.19z"/>
			<path style="fill:#B7E195;" d="M64.456-69.69c0,1.657-1.343,3-3,3c-1.657,0-3-1.343-3-3s1.343-3,3-3
				C63.113-72.69,64.456-71.347,64.456-69.69z"/>
			<path style="fill:#B7E195;" d="M72.956-79.69c0,2.623-2.127,4.75-4.75,4.75s-4.75-2.127-4.75-4.75s2.127-4.75,4.75-4.75
				S72.956-82.314,72.956-79.69z"/>
			<path style="fill:#B7E195;" d="M104.706-79.69c0,1.243-1.007,2.25-2.25,2.25c-1.243,0-2.25-1.007-2.25-2.25
				c0-1.243,1.007-2.25,2.25-2.25C103.699-81.94,104.706-80.933,104.706-79.69z"/>
			<path style="fill:#B7E195;" d="M115.206-84.44c0,1.243-1.007,2.25-2.25,2.25c-1.243,0-2.25-1.007-2.25-2.25
				c0-1.243,1.007-2.25,2.25-2.25C114.199-86.69,115.206-85.683,115.206-84.44z"/>
			<path style="fill:#B7E195;" d="M160.206-89.69c0,3.866-3.134,7-7,7c-3.866,0-7-3.134-7-7c0-3.866,3.134-7,7-7
				C157.072-96.69,160.206-93.556,160.206-89.69z"/>
			<path style="fill:#B7E195;" d="M212.956-47.44c0,6.765-5.485,12.25-12.25,12.25s-12.25-5.485-12.25-12.25
				s5.485-12.25,12.25-12.25S212.956-54.206,212.956-47.44z"/>
			<path style="fill:#B7E195;" d="M47.206-36.19c0-1.933-1.567-3.5-3.5-3.5c-1.933,0-3.5,1.567-3.5,3.5c0,1.933,1.567,3.5,3.5,3.5
				C45.639-32.69,47.206-34.257,47.206-36.19z"/>
			<path style="fill:#B7E195;" d="M69.206-42.19c0,2.623-2.127,4.75-4.75,4.75c-2.623,0-4.75-2.127-4.75-4.75
				c0-2.623,2.127-4.75,4.75-4.75C67.079-46.94,69.206-44.814,69.206-42.19z"/>
			<path style="fill:#B7E195;" d="M116.706-50.107c0,4.418-3.582,8-8,8c-4.418,0-8-3.582-8-8s3.582-8,8-8
				C113.124-58.107,116.706-54.525,116.706-50.107z"/>
			<path style="fill:#B7E195;" d="M153.206-52.774c0,5.569-4.514,10.083-10.083,10.083s-10.083-4.514-10.083-10.083
				s4.514-10.083,10.083-10.083S153.206-58.342,153.206-52.774z"/>
			<path style="fill:#67BA48;" d="M26-130.107c0,7.18-5.82,13-13,13s-13-5.82-13-13s5.82-13,13-13S26-137.287,26-130.107z"/>
			<path style="fill:#67BA48;" d="M226.44-130.107c0,7.18-5.82,13-13,13s-13-5.82-13-13s5.82-13,13-13
				S226.44-137.287,226.44-130.107z"/>
			<path style="fill:#67BA48;" d="M100.206-93.69c0,8.284-6.716,15-15,15s-15-6.716-15-15s6.716-15,15-15
				S100.206-101.975,100.206-93.69z"/>
			<path style="fill:#67BA48;" d="M141.123-92.69c0,7.18-5.82,13-13,13s-13-5.82-13-13s5.82-13,13-13S141.123-99.87,141.123-92.69z"
				/>
			<path style="fill:#67BA48;" d="M118.206-68.69c0,4.004-3.246,7.25-7.25,7.25c-4.004,0-7.25-3.246-7.25-7.25
				c0-4.004,3.246-7.25,7.25-7.25C114.96-75.94,118.206-72.694,118.206-68.69z"/>
			<path style="fill:#67BA48;" d="M55.456-68.69c0,4.971-4.029,9-9,9s-9-4.029-9-9c0-4.971,4.029-9,9-9S55.456-73.661,55.456-68.69z
				"/>
			<path style="fill:#67BA48;" d="M9-64.774c0,4.418,3.582,8,8,8s8-3.582,8-8c0-4.418-3.582-8-8-8S9-69.192,9-64.774z"/>
			<path style="fill:#67BA48;" d="M209.206-64.774c0,4.418,3.582,8,8,8c4.418,0,8-3.582,8-8c0-4.418-3.582-8-8-8
				C212.788-72.774,209.206-69.192,209.206-64.774z"/>
			<path style="fill:#67BA48;" d="M27.706-77.44c0,1.243-1.007,2.25-2.25,2.25c-1.243,0-2.25-1.007-2.25-2.25
				c0-1.243,1.007-2.25,2.25-2.25C26.699-79.69,27.706-78.683,27.706-77.44z"/>
			<path style="fill:#67BA48;" d="M188.456-62.857c0,9.113-7.387,16.5-16.5,16.5c-9.113,0-16.5-7.387-16.5-16.5
				s7.387-16.5,16.5-16.5C181.069-79.357,188.456-71.97,188.456-62.857z"/>
			<path style="fill:#67BA48;" d="M183.039-166.19c0,2.347-1.903,4.25-4.25,4.25c-2.347,0-4.25-1.903-4.25-4.25
				c0-2.347,1.903-4.25,4.25-4.25C181.136-170.44,183.039-168.537,183.039-166.19z"/>
			<path style="fill:#67BA48;" d="M160.206-205.44c0,5.017-4.067,9.083-9.083,9.083s-9.083-4.067-9.083-9.083
				s4.067-9.083,9.083-9.083S160.206-210.457,160.206-205.44z"/>
			<path style="fill:#67BA48;" d="M136.789-207.94c0,3.866-3.134,7-7,7c-3.866,0-7-3.134-7-7c0-3.866,3.134-7,7-7
				C133.655-214.94,136.789-211.806,136.789-207.94z"/>
			<path style="fill:#67BA48;" d="M215.956-173.19c0,6.213-5.037,11.25-11.25,11.25c-6.213,0-11.25-5.037-11.25-11.25
				c0-6.213,5.037-11.25,11.25-11.25C210.919-184.44,215.956-179.403,215.956-173.19z"/>
			<path style="fill:#67BA48;" d="M71.206-188.94c0,5.937-4.813,10.75-10.75,10.75s-10.75-4.813-10.75-10.75
				c0-5.937,4.813-10.75,10.75-10.75S71.206-194.877,71.206-188.94z"/>
			<path style="fill:#67BA48;" d="M65.456-138.69c0,8.146-6.604,14.75-14.75,14.75s-14.75-6.604-14.75-14.75
				c0-8.146,6.604-14.75,14.75-14.75S65.456-146.836,65.456-138.69z"/>
			<path style="fill:#67BA48;" d="M68.206-155.19c0,4.832,3.918,8.75,8.75,8.75c4.832,0,8.75-3.918,8.75-8.75
				c0-4.833-3.918-8.75-8.75-8.75C72.123-163.94,68.206-160.023,68.206-155.19z"/>
			<path style="fill:#67BA48;" d="M156.456-144.19c0,9.389-7.611,17-17,17s-17-7.611-17-17s7.611-17,17-17
				S156.456-153.579,156.456-144.19z"/>
			<path style="fill:#67BA48;" d="M81.123-116.19c0,3.544-2.873,6.417-6.417,6.417c-3.544,0-6.417-2.873-6.417-6.417
				c0-3.544,2.873-6.417,6.417-6.417C78.25-122.607,81.123-119.734,81.123-116.19z"/>
			<path style="fill:#67BA48;" d="M87.206-175.19c0,1.105-0.895,2-2,2s-2-0.895-2-2s0.895-2,2-2S87.206-176.295,87.206-175.19z"/>
			<path style="fill:#3D6428;" d="M68.354-23.5c0,6.18-5.01,11.19-11.19,11.19s-11.19-5.01-11.19-11.19s5.01-11.19,11.19-11.19
				S68.354-29.68,68.354-23.5z"/>
			<path style="fill:#3D6428;" d="M68.354-223.94c0,6.18-5.01,11.19-11.19,11.19s-11.19-5.01-11.19-11.19
				c0-6.18,5.01-11.19,11.19-11.19S68.354-230.12,68.354-223.94z"/>
			<path style="fill:#3D6428;" d="M50.706-206.44c0,2.623-2.127,4.75-4.75,4.75s-4.75-2.127-4.75-4.75s2.127-4.75,4.75-4.75
				S50.706-209.064,50.706-206.44z"/>
			<path style="fill:#284417;" d="M105.456-234.357c0,2.347-1.903,4.25-4.25,4.25c-2.347,0-4.25-1.903-4.25-4.25
				s1.903-4.25,4.25-4.25C103.553-238.607,105.456-236.704,105.456-234.357z"/>
			<path style="fill:#284417;" d="M105.456-33.709c0,2.347-1.903,4.25-4.25,4.25c-2.347,0-4.25-1.903-4.25-4.25
				s1.903-4.25,4.25-4.25C103.553-37.959,105.456-36.056,105.456-33.709z"/>
			<path style="fill:#284417;" d="M116.706-214.524c0,1.243-1.007,2.25-2.25,2.25c-1.243,0-2.25-1.007-2.25-2.25
				c0-1.243,1.007-2.25,2.25-2.25C115.699-216.774,116.706-215.766,116.706-214.524z"/>
			<path style="fill:#284417;" d="M143.706-216.69c0,1.473-1.194,2.667-2.667,2.667c-1.473,0-2.667-1.194-2.667-2.667
				c0-1.473,1.194-2.667,2.667-2.667C142.512-219.357,143.706-218.163,143.706-216.69z"/>
			<path style="fill:#284417;" d="M152.067-231.69c0,3.375-2.736,6.111-6.111,6.111s-6.111-2.736-6.111-6.111
				s2.736-6.111,6.111-6.111S152.067-235.065,152.067-231.69z"/>
			<path style="fill:#284417;" d="M195.956-230.94c0,1.105,0.895,2,2,2s2-0.895,2-2s-0.895-2-2-2S195.956-232.045,195.956-230.94z"
				/>
			<path style="fill:#B7E195;" d="M191.206-32.065c0,0.69,0.56,1.25,1.25,1.25c0.69,0,1.25-0.56,1.25-1.25
				c0-0.69-0.56-1.25-1.25-1.25C191.766-33.315,191.206-32.756,191.206-32.065z"/>
			<path style="fill:#284417;" d="M195.956-30.065c0,1.105,0.895,2,2,2s2-0.895,2-2c0-1.105-0.895-2-2-2
				S195.956-31.17,195.956-30.065z"/>
			<path style="fill:#284417;" d="M186.956-234.357c0,5.247-4.253,9.5-9.5,9.5s-9.5-4.253-9.5-9.5s4.253-9.5,9.5-9.5
				S186.956-239.604,186.956-234.357z"/>
			<path style="fill:#284417;" d="M186.956-35.19c0,5.247-4.253,9.5-9.5,9.5s-9.5-4.253-9.5-9.5s4.253-9.5,9.5-9.5
				S186.956-40.437,186.956-35.19z"/>
			<path style="fill:#284417;" d="M202.425-205.44c0,3.573-2.896,6.469-6.469,6.469c-3.573,0-6.469-2.896-6.469-6.469
				c0-3.573,2.896-6.469,6.469-6.469C199.528-211.909,202.425-209.013,202.425-205.44z"/>
			<path style="fill:#284417;" d="M170.956-197.972c0,1.105-0.895,2-2,2s-2-0.895-2-2s0.895-2,2-2S170.956-199.076,170.956-197.972z
				"/>
			<path style="fill:#284417;" d="M191.206-170.44c0,1.519-1.231,2.75-2.75,2.75s-2.75-1.231-2.75-2.75s1.231-2.75,2.75-2.75
				S191.206-171.959,191.206-170.44z"/>
			<path style="fill:#284417;" d="M170.706-167.69c0,5.799-4.701,10.5-10.5,10.5c-5.799,0-10.5-4.701-10.5-10.5
				c0-5.799,4.701-10.5,10.5-10.5C166.005-178.19,170.706-173.489,170.706-167.69z"/>
			<path style="fill:#284417;" d="M204.456-149.857c0,7.134-5.783,12.917-12.917,12.917c-7.134,0-12.917-5.783-12.917-12.917
				s5.783-12.917,12.917-12.917C198.673-162.774,204.456-156.991,204.456-149.857z"/>
			<path style="fill:#284417;" d="M102.706-155.19c0,3.866-3.134,7-7,7c-3.866,0-7-3.134-7-7c0-3.866,3.134-7,7-7
				C99.572-162.19,102.706-159.056,102.706-155.19z"/>
			<path style="fill:#284417;" d="M120.956-148.19c0,4.832-3.918,8.75-8.75,8.75c-4.832,0-8.75-3.918-8.75-8.75
				c0-4.833,3.918-8.75,8.75-8.75C117.038-156.94,120.956-153.023,120.956-148.19z"/>
			<path style="fill:#284417;" d="M113.456-186.94c0,5.385-4.365,9.75-9.75,9.75c-5.385,0-9.75-4.365-9.75-9.75
				c0-5.385,4.365-9.75,9.75-9.75C109.091-196.69,113.456-192.325,113.456-186.94z"/>
			<path style="fill:#284417;" d="M93.456-203.69c0,5.109-4.141,9.25-9.25,9.25s-9.25-4.141-9.25-9.25c0-5.109,4.141-9.25,9.25-9.25
				S93.456-208.799,93.456-203.69z"/>
			<path style="fill:#284417;" d="M77.956-175.19c0,2.485-2.015,4.5-4.5,4.5c-2.485,0-4.5-2.015-4.5-4.5c0-2.485,2.015-4.5,4.5-4.5
				C75.941-179.69,77.956-177.676,77.956-175.19z"/>
			<path style="fill:#284417;" d="M73.456-130.107c0,1.795-1.455,3.25-3.25,3.25c-1.795,0-3.25-1.455-3.25-3.25
				s1.455-3.25,3.25-3.25C72.001-133.357,73.456-131.902,73.456-130.107z"/>
			<path style="fill:#284417;" d="M68.373-108.44c0,2.163-1.754,3.917-3.917,3.917s-3.917-1.754-3.917-3.917
				s1.754-3.917,3.917-3.917S68.373-110.603,68.373-108.44z"/>
			<path style="fill:#284417;" d="M42.956-119.19c0,2.117-1.716,3.833-3.833,3.833s-3.833-1.716-3.833-3.833
				c0-2.117,1.716-3.833,3.833-3.833S42.956-121.307,42.956-119.19z"/>
			<path style="fill:#284417;" d="M30.956-144.19c0,1.933-1.567,3.5-3.5,3.5s-3.5-1.567-3.5-3.5s1.567-3.5,3.5-3.5
				S30.956-146.123,30.956-144.19z"/>
			<path style="fill:#284417;" d="M94.706-118.19c0,1.933-1.567,3.5-3.5,3.5c-1.933,0-3.5-1.567-3.5-3.5c0-1.933,1.567-3.5,3.5-3.5
				C93.139-121.69,94.706-120.123,94.706-118.19z"/>
			<path style="fill:#284417;" d="M135.456-117.107c0,4.05-3.283,7.333-7.333,7.333c-4.05,0-7.333-3.283-7.333-7.333
				s3.283-7.333,7.333-7.333C132.173-124.44,135.456-121.157,135.456-117.107z"/>
			<path style="fill:#284417;" d="M158.206-129.69c0,1.381-1.119,2.5-2.5,2.5c-1.381,0-2.5-1.119-2.5-2.5c0-1.381,1.119-2.5,2.5-2.5
				C157.087-132.19,158.206-131.071,158.206-129.69z"/>
			<path style="fill:#284417;" d="M146.206-99.065c0,1.105-0.895,2-2,2s-2-0.895-2-2s0.895-2,2-2S146.206-100.17,146.206-99.065z"/>
			<path style="fill:#284417;" d="M161.331-80.94c0,0.69-0.56,1.25-1.25,1.25c-0.69,0-1.25-0.56-1.25-1.25
				c0-0.69,0.56-1.25,1.25-1.25C160.771-82.19,161.331-81.631,161.331-80.94z"/>
			<path style="fill:#284417;" d="M20.456-106.065c0,5.109-4.141,9.25-9.25,9.25s-9.25-4.141-9.25-9.25s4.141-9.25,9.25-9.25
				S20.456-111.174,20.456-106.065z"/>
			<path style="fill:#284417;" d="M221.206-106.065c0,5.109-4.141,9.25-9.25,9.25c-5.109,0-9.25-4.141-9.25-9.25
				s4.141-9.25,9.25-9.25C217.065-115.315,221.206-111.174,221.206-106.065z"/>
			<path style="fill:#284417;" d="M27.5-86.565c0,3.038-2.462,5.5-5.5,5.5s-5.5-2.462-5.5-5.5s2.462-5.5,5.5-5.5
				S27.5-89.603,27.5-86.565z"/>
			<path style="fill:#284417;" d="M38.581-81.065c0,2.416-1.959,4.375-4.375,4.375c-2.416,0-4.375-1.959-4.375-4.375
				s1.959-4.375,4.375-4.375C36.622-85.44,38.581-83.482,38.581-81.065z"/>
			<path style="fill:#284417;" d="M215.331-77.69c0,1.864-1.511,3.375-3.375,3.375c-1.864,0-3.375-1.511-3.375-3.375
				s1.511-3.375,3.375-3.375C213.82-81.065,215.331-79.554,215.331-77.69z"/>
			<path style="fill:#284417;" d="M61.456-89.315c0,3.728-3.022,6.75-6.75,6.75c-3.728,0-6.75-3.022-6.75-6.75s3.022-6.75,6.75-6.75
				C58.434-96.065,61.456-93.043,61.456-89.315z"/>
			<path style="fill:#284417;" d="M112.206-91.065c0,2.485-2.015,4.5-4.5,4.5c-2.485,0-4.5-2.015-4.5-4.5s2.015-4.5,4.5-4.5
				C110.191-95.565,112.206-93.551,112.206-91.065z"/>
			<path style="fill:#284417;" d="M132.456-70.315c0,3.245-2.63,5.875-5.875,5.875c-3.245,0-5.875-2.63-5.875-5.875
				c0-3.245,2.63-5.875,5.875-5.875C129.826-76.19,132.456-73.56,132.456-70.315z"/>
			<path style="fill:#284417;" d="M101.176-72.69c0,1.088-0.882,1.97-1.97,1.97c-1.088,0-1.97-0.882-1.97-1.97
				c0-1.088,0.882-1.97,1.97-1.97C100.294-74.66,101.176-73.778,101.176-72.69z"/>
			<path style="fill:#284417;" d="M94.706-77.44c0,0.552-0.448,1-1,1s-1-0.448-1-1s0.448-1,1-1S94.706-77.993,94.706-77.44z"/>
			<path style="fill:#284417;" d="M62.581-58.69c0,1.588-1.287,2.875-2.875,2.875s-2.875-1.287-2.875-2.875
				c0-1.588,1.287-2.875,2.875-2.875S62.581-60.278,62.581-58.69z"/>
			<path style="fill:#284417;" d="M55.456-50.69c0,3.521-2.854,6.375-6.375,6.375c-3.521,0-6.375-2.854-6.375-6.375
				c0-3.521,2.854-6.375,6.375-6.375C52.602-57.065,55.456-54.211,55.456-50.69z"/>
			<path style="fill:#284417;" d="M27.5-48.315c0,3.038-2.462,5.5-5.5,5.5s-5.5-2.462-5.5-5.5c0-3.038,2.462-5.5,5.5-5.5
				S27.5-51.353,27.5-48.315z"/>
			<path style="fill:#284417;" d="M200.706-100.69c0,10.631-8.619,19.25-19.25,19.25c-10.631,0-19.25-8.619-19.25-19.25
				s8.619-19.25,19.25-19.25C192.087-119.94,200.706-111.322,200.706-100.69z"/>
			<path style="fill:#284417;" d="M61.956-206.44c0,1.841-1.492,3.333-3.333,3.333s-3.333-1.492-3.333-3.333
				c0-1.841,1.492-3.333,3.333-3.333S61.956-208.281,61.956-206.44z"/>
			<path style="fill:#284417;" d="M47.456-194.44c0,3.038-2.462,5.5-5.5,5.5c-3.038,0-5.5-2.462-5.5-5.5s2.462-5.5,5.5-5.5
				C44.993-199.94,47.456-197.478,47.456-194.44z"/>
			<path style="fill:#284417;" d="M45.123-182.44c0,1.749-1.418,3.167-3.167,3.167s-3.167-1.418-3.167-3.167
				s1.418-3.167,3.167-3.167S45.123-184.189,45.123-182.44z"/>
			<path style="fill:#B7E195;" d="M133.831-62.815c0,0.552-0.448,1-1,1c-0.552,0-1-0.448-1-1c0-0.552,0.448-1,1-1
				C133.383-63.815,133.831-63.368,133.831-62.815z"/>
			<path style="fill:#3D6428;" d="M132.831-76.44c0,0.552,0.448,1,1,1c0.552,0,1-0.448,1-1s-0.448-1-1-1
				C133.279-77.44,132.831-76.993,132.831-76.44z"/>
			<path style="fill:#3D6428;" d="M207.581-72.94c0,5.109-4.141,9.25-9.25,9.25c-5.109,0-9.25-4.141-9.25-9.25s4.141-9.25,9.25-9.25
				C203.44-82.19,207.581-78.049,207.581-72.94z"/>
			<path style="fill:#3D6428;" d="M154.456-73.815c0,4.971-4.029,9-9,9c-4.971,0-9-4.029-9-9c0-4.971,4.029-9,9-9
				C150.426-82.815,154.456-78.786,154.456-73.815z"/>
			<path style="fill:#3D6428;" d="M130.331-53.69c0,3.107-2.518,5.625-5.625,5.625c-3.107,0-5.625-2.518-5.625-5.625
				s2.518-5.625,5.625-5.625C127.812-59.315,130.331-56.797,130.331-53.69z"/>
			<path style="fill:#3D6428;" d="M166.081-38.815c0,3.314-2.686,6-6,6c-3.314,0-6-2.686-6-6c0-3.314,2.686-6,6-6
				C163.395-44.815,166.081-42.129,166.081-38.815z"/>
			<path style="fill:#3D6428;" d="M35.956-58.19c0,1.933-1.567,3.5-3.5,3.5c-1.933,0-3.5-1.567-3.5-3.5c0-1.933,1.567-3.5,3.5-3.5
				C34.389-61.69,35.956-60.123,35.956-58.19z"/>
			<path style="fill:#3D6428;" d="M41.831-45.315c0,3.245-2.63,5.875-5.875,5.875c-3.245,0-5.875-2.63-5.875-5.875
				c0-3.245,2.63-5.875,5.875-5.875C39.201-51.19,41.831-48.56,41.831-45.315z"/>
			<path style="fill:#3D6428;" d="M66.956-96.815c0,1.381-1.119,2.5-2.5,2.5c-1.381,0-2.5-1.119-2.5-2.5c0-1.381,1.119-2.5,2.5-2.5
				C65.837-99.315,66.956-98.196,66.956-96.815z"/>
			<path style="fill:#3D6428;" d="M197.206-127.69c0,3.314-2.686,6-6,6c-3.314,0-6-2.686-6-6s2.686-6,6-6
				C194.52-133.69,197.206-131.004,197.206-127.69z"/>
			<path style="fill:#3D6428;" d="M160.206-112.357c0,5.799-4.701,10.5-10.5,10.5c-5.799,0-10.5-4.701-10.5-10.5
				s4.701-10.5,10.5-10.5C155.505-122.857,160.206-118.156,160.206-112.357z"/>
			<path style="fill:#3D6428;" d="M97.236-59.315c0,8.899-7.214,16.113-16.113,16.113s-16.113-7.214-16.113-16.113
				s7.214-16.113,16.113-16.113S97.236-68.214,97.236-59.315z"/>
			<path style="fill:#3D6428;" d="M45.956-100.19c0,5.891-4.776,10.667-10.667,10.667s-10.667-4.776-10.667-10.667
				s4.776-10.667,10.667-10.667S45.956-106.081,45.956-100.19z"/>
			<path style="fill:#3D6428;" d="M219.024-152.19c0,3.084-2.5,5.583-5.583,5.583s-5.583-2.5-5.583-5.583s2.5-5.583,5.583-5.583
				S219.024-155.274,219.024-152.19z"/>
			<path style="fill:#3D6428;" d="M44-163.94c0,7.18-5.82,13-13,13s-13-5.82-13-13s5.82-13,13-13S44-171.12,44-163.94z"/>
			<path style="fill:#3D6428;" d="M88.206-132.19c0,3.176-2.574,5.75-5.75,5.75s-5.75-2.574-5.75-5.75c0-3.176,2.574-5.75,5.75-5.75
				S88.206-135.366,88.206-132.19z"/>
			<path style="fill:#3D6428;" d="M91.206-145.44c0,1.381-1.119,2.5-2.5,2.5c-1.381,0-2.5-1.119-2.5-2.5c0-1.381,1.119-2.5,2.5-2.5
				C90.087-147.94,91.206-146.821,91.206-145.44z"/>
			<path style="fill:#3D6428;" d="M122.456-130.107c0,4.004-3.246,7.25-7.25,7.25c-4.004,0-7.25-3.246-7.25-7.25
				c0-4.004,3.246-7.25,7.25-7.25C119.21-137.357,122.456-134.111,122.456-130.107z"/>
			<path style="fill:#3D6428;" d="M169.456-150.94c0,2.623-2.127,4.75-4.75,4.75s-4.75-2.127-4.75-4.75s2.127-4.75,4.75-4.75
				S169.456-153.564,169.456-150.94z"/>
			<path style="fill:#3D6428;" d="M142.706-166.69c0,1.519,1.231,2.75,2.75,2.75s2.75-1.231,2.75-2.75s-1.231-2.75-2.75-2.75
				S142.706-168.209,142.706-166.69z"/>
			<path style="fill:#3D6428;" d="M113.456-167.69c0,3.176-2.574,5.75-5.75,5.75s-5.75-2.574-5.75-5.75
				c0-3.176,2.574-5.75,5.75-5.75S113.456-170.866,113.456-167.69z"/>
			<path style="fill:#3D6428;" d="M90.873-185.607c0,1.749-1.418,3.167-3.167,3.167s-3.167-1.418-3.167-3.167
				s1.418-3.167,3.167-3.167S90.873-187.356,90.873-185.607z"/>
			<path style="fill:#3D6428;" d="M136.456-231.253c0,6.996-5.671,12.667-12.667,12.667c-6.996,0-12.667-5.671-12.667-12.667
				s5.671-12.667,12.667-12.667C130.785-243.919,136.456-238.248,136.456-231.253z"/>
			<path style="fill:#3D6428;" d="M136.456-31.128c0,6.996-5.671,12.667-12.667,12.667c-6.996,0-12.667-5.671-12.667-12.667
				s5.671-12.667,12.667-12.667C130.785-43.794,136.456-38.123,136.456-31.128z"/>
			<path style="fill:#284417;" d="M151.205-32.558c0,3.375-2.736,6.111-6.111,6.111s-6.111-2.736-6.111-6.111
				c0-3.375,2.736-6.111,6.111-6.111S151.205-35.933,151.205-32.558z"/>
			<path style="fill:#3D6428;" d="M166.956-187.94c0,3.728-3.022,6.75-6.75,6.75s-6.75-3.022-6.75-6.75s3.022-6.75,6.75-6.75
				S166.956-191.668,166.956-187.94z"/>
			<path style="fill:#3D6428;" d="M185.706-212.94c0,5.661-4.589,10.25-10.25,10.25s-10.25-4.589-10.25-10.25
				s4.589-10.25,10.25-10.25S185.706-218.601,185.706-212.94z"/>
			<path style="fill:#3D6428;" d="M199.956-194.69c0,1.381-1.119,2.5-2.5,2.5c-1.381,0-2.5-1.119-2.5-2.5c0-1.381,1.119-2.5,2.5-2.5
				C198.837-197.19,199.956-196.071,199.956-194.69z"/>
			<path style="fill:#3D6428;" d="M213.956-194.69c0,3.314-2.686,6-6,6c-3.314,0-6-2.686-6-6c0-3.314,2.686-6,6-6
				C211.27-200.69,213.956-198.004,213.956-194.69z"/>
		</g>
		<g>
			<path style="fill:#B7E195;" d="M42.94-20.5C42.94-9.178,33.762,0,22.44,0S1.94-9.178,1.94-20.5S11.118-41,22.44-41
				S42.94-31.822,42.94-20.5z"/>
			<path style="fill:#B7E195;" d="M42.456-220.94c0,11.054-8.961,20.016-20.016,20.016S2.425-209.886,2.425-220.94
				c0-11.054,8.961-20.016,20.016-20.016S42.456-231.995,42.456-220.94z"/>
			<path style="fill:#67BA48;" d="M26.44-130.107c0,7.18-5.82,13-13,13s-13-5.82-13-13s5.82-13,13-13S26.44-137.287,26.44-130.107z"
				/>
			<path style="fill:#67BA48;" d="M9.206-64.774c0,4.418,3.582,8,8,8s8-3.582,8-8c0-4.418-3.582-8-8-8S9.206-69.192,9.206-64.774z"
				/>
			<path style="fill:#284417;" d="M21.206-106.065c0,5.109-4.141,9.25-9.25,9.25s-9.25-4.141-9.25-9.25s4.141-9.25,9.25-9.25
				S21.206-111.174,21.206-106.065z"/>
			<path style="fill:#3D6428;" d="M19.024-152.19c0,3.084-2.5,5.583-5.583,5.583s-5.583-2.5-5.583-5.583s2.5-5.583,5.583-5.583
				S19.024-155.274,19.024-152.19z"/>
		</g>
		<g>
			<path style="fill:#B7E195;" d="M242.5-220.5c0,11.322-9.178,20.5-20.5,20.5s-20.5-9.178-20.5-20.5S210.678-241,222-241
				S242.5-231.822,242.5-220.5z"/>
		</g>
		<g>
			<path style="fill:#B7E195;" d="M42.5-220.5c0,11.322-9.178,20.5-20.5,20.5s-20.5-9.178-20.5-20.5S10.678-241,22-241
				S42.5-231.822,42.5-220.5z"/>
			<path style="fill:#B7E195;" d="M242.94-220.5c0,11.322-9.178,20.5-20.5,20.5s-20.5-9.178-20.5-20.5s9.178-20.5,20.5-20.5
				S242.94-231.822,242.94-220.5z"/>
			<path style="fill:#B7E195;" d="M93.956-227.5c0,6.075-4.925,11-11,11c-6.075,0-11-4.925-11-11s4.925-11,11-11
				C89.031-238.5,93.956-233.575,93.956-227.5z"/>
			<path style="fill:#3D6428;" d="M68.354-223.5c0,6.18-5.01,11.19-11.19,11.19s-11.19-5.01-11.19-11.19
				c0-6.18,5.01-11.19,11.19-11.19S68.354-229.68,68.354-223.5z"/>
			<path style="fill:#284417;" d="M105.456-233.709c0,2.347-1.903,4.25-4.25,4.25c-2.347,0-4.25-1.903-4.25-4.25
				s1.903-4.25,4.25-4.25C103.553-237.959,105.456-236.056,105.456-233.709z"/>
			<path style="fill:#284417;" d="M195.956-230.065c0,1.105,0.895,2,2,2s2-0.895,2-2s-0.895-2-2-2S195.956-231.17,195.956-230.065z"
				/>
			<path style="fill:#284417;" d="M186.956-235.19c0,5.247-4.253,9.5-9.5,9.5s-9.5-4.253-9.5-9.5s4.253-9.5,9.5-9.5
				S186.956-240.437,186.956-235.19z"/>
			<path style="fill:#3D6428;" d="M136.456-231.128c0,6.996-5.671,12.667-12.667,12.667c-6.996,0-12.667-5.671-12.667-12.667
				s5.671-12.667,12.667-12.667C130.785-243.794,136.456-238.123,136.456-231.128z"/>
			<path style="fill:#284417;" d="M151.205-232.558c0,3.375-2.736,6.111-6.111,6.111s-6.111-2.736-6.111-6.111
				s2.736-6.111,6.111-6.111S151.205-235.933,151.205-232.558z"/>
		</g>
		<g>
			<path style="fill:#B7E195;" d="M42.94-220.5c0,11.322-9.178,20.5-20.5,20.5s-20.5-9.178-20.5-20.5s9.178-20.5,20.5-20.5
				S42.94-231.822,42.94-220.5z"/>
		</g>
	</g>
</pattern>
<rect x="0" y="0" style="fill:url(#green-dots);" width="100%" height="100%"/>
</svg>
