<?xml version="1.0" encoding="utf-8"?>
<!-- Generator: Adobe Illustrator 18.0.0, SVG Export Plug-In . SVG Version: 6.00 Build 0)  -->
<!DOCTYPE svg PUBLIC "-//W3C//DTD SVG 1.1//EN" "http://www.w3.org/Graphics/SVG/1.1/DTD/svg11.dtd">
<svg version="1.1" id="layer" xmlns="http://www.w3.org/2000/svg" xmlns:xlink="http://www.w3.org/1999/xlink" x="0px" y="0px"
	 viewBox="-182.95752 88.691895 863.162598 311.308105" style="enable-background:new -182.95752 88.691895 863.162598 311.308105;"
	 xml:space="preserve">
<path style="fill:#FFFFFF;" d="M-182.95752,232.119141v138.998047l0.401672-0.058289V400l844.905457-123.419312v-41.415894
	v-83.006592l17.855469-17.638672V88.691895l-146.607422,21.281738v0.001038l-77.944336,11.314392l-8.996094,9.080566
	l-0.041443,0.005981c-5.112976-2.975769-11.277344-4.574829-18.323792-4.574829c-2.470703,0-5.083984,0.197754-7.770508,0.587891
	L386.75,131.291504l0,0l-78.098633,11.337463v-0.001038l-47.080078,6.835449l-17.135742,17.145996l-0.064941,0.009277v-14.658691
	l-47.07959,6.833496l-9.086487,9.085754c-5.034485-2.950073-11.186768-4.516907-18.310486-4.516907
	c-2.705078,0-5.620605,0.224121-8.666992,0.666504l-38.619141,5.606445l-8.567871,8.506226
	c-5.842224-3.612793-12.650818-5.183472-19.286621-5.183472c-2.378906,0-4.880371,0.187988-7.435059,0.559082
	c-10.55957,1.533203-19.262207,5.689941-25.868164,12.355957l-0.179199,0.178223l-10.82373,10.724609
	c-5.780273-7.857422-14.959961-12.180664-26.81543-12.180664c-2.705078,0-5.621582,0.224121-8.667969,0.666016l-38.620117,5.605957
	l-0.277832,0.411621v-21.021973l-68.505859,9.944824l-21.42041,21.240234v2.520325l-47.677246,6.921082L-182.95752,232.119141z
	 M61.068848,186.251465l-0.000488-0.000488"/>
<path style="fill:#571010;stroke:#571010;stroke-width:2;stroke-miterlimit:10;" d="M-145.982239,351.301392l-17.078613,2.479492
	V245.089478l16.358032-21.014404l45.181152-6.558594v15.527344l-16.358032,21.014404l-11.744507,1.704712v14.123169
	l22.047363-3.201172v15.527344l-16.358032,21.014893l-5.689331,0.82605v26.234253L-145.982239,351.301392z M-39.101257,202.709839
	v-14.90625l-14.905273,2.164062l-8.694336,11.240967v-9.97876l-14.905762,2.163574l-16.357544,21.014404v14.90625
	l11.938599-1.732971l-5.107544,6.486389l-17.389648,111.216309l15.682129-2.277344l16.357544-21.013916l0.16156-1.103516
	l7.391052-1.072998l2.950195,19.291992l17.234375-2.501953l16.358032-21.014893l-17.15741-104.749146L-39.101257,202.709839z
	 M-8.100403,331.286743l-17.07959,2.478516V225.074341l16.358032-21.014404l25.773926-3.741699
	c17.700195-2.569336,25.307617,4.555664,25.307617,21.325195v8.540039c0,7.753601-1.721497,13.885864-5.312195,18.478149
	l-4.409424,5.669006c7.401184,2.800232,9.87738,10.352173,9.87738,21.014465v16.769531
	c0,5.279297,0.155273,9.138672,1.862793,12.927734l-16.358032,21.014893l-17.38916,2.524414
	c-0.931641-2.65918-1.552734-4.277344-1.552734-13.12793v-17.080078c0-2.634521-0.239014-4.790955-0.721069-6.534912v18.433105
	L-8.100403,331.286743z M92.076965,310.710632c-4.27002,5.359497-10.668213,8.824402-19.128052,10.052673
	c-16.768555,2.433594-25.463379-6.241211-25.463379-23.631836v-56.519531c0-8.731689,2.195068-15.89978,6.500305-21.184143
	l16.192627-20.802612c4.270081-5.359558,10.668396-8.824524,19.128479-10.052551
	c16.768555-2.434082,25.462891,6.241211,25.462891,23.631836v10.558594l-10.244446,12.972229l10.244446-1.481995v34.470703
	c0,8.731689-2.194946,15.899719-6.500061,21.184021L92.076965,310.710632z M178.985474,228.221741
	c8.059204,2.690979,11.245789,10.163635,11.245789,21.008118v8.850586c0,7.44635-1.754517,13.607361-5.190125,18.382019
	c-0.051697,0.073547-0.112854,0.139465-0.165344,0.212402c-0.051575,0.073425-0.11261,0.139038-0.164978,0.211853
	c-0.051697,0.073608-0.112793,0.139343-0.165222,0.21228c-0.051758,0.073669-0.112854,0.139526-0.165405,0.212524
	c-0.051575,0.073425-0.112671,0.13916-0.165039,0.211975c-0.051697,0.073547-0.112793,0.139343-0.165222,0.21228
	c-0.051758,0.073669-0.112976,0.139648-0.165527,0.212708c-0.051575,0.073425-0.11261,0.139038-0.164978,0.211853
	c-0.051758,0.073669-0.112854,0.139465-0.165405,0.212524c-0.051575,0.073425-0.112671,0.13916-0.165039,0.211975
	c-0.051697,0.073608-0.112793,0.139343-0.165222,0.21228c-0.051697,0.073608-0.112793,0.139343-0.165222,0.21228
	c-0.051819,0.07373-0.112976,0.139648-0.165527,0.212708c-0.051697,0.073486-0.112732,0.139221-0.165161,0.212158
	c-0.051636,0.073486-0.112671,0.13916-0.165039,0.211975c-0.051636,0.073608-0.112793,0.139343-0.165222,0.212219
	c-0.051758,0.073669-0.112854,0.139526-0.165405,0.212524c-0.051575,0.073425-0.112671,0.13916-0.165039,0.211975
	c-0.051819,0.07373-0.112976,0.139648-0.165527,0.212708c-0.051697,0.073486-0.112732,0.139221-0.165161,0.212158
	c-0.051636,0.073486-0.11261,0.139221-0.165039,0.212036c-0.051636,0.073547-0.112732,0.139404-0.165222,0.21228
	c-0.051636,0.073547-0.112732,0.139404-0.165222,0.21228c-0.051697,0.073608-0.112854,0.139526-0.165405,0.212524
	c-0.051697,0.073608-0.112854,0.139404-0.165344,0.212341c-0.051575,0.073486-0.11261,0.13916-0.164978,0.211914
	c-0.051636,0.073547-0.112732,0.139404-0.165222,0.21228c-0.051636,0.073547-0.112793,0.139343-0.165222,0.212219
	c-0.051636,0.073608-0.112793,0.139343-0.165222,0.21228c-0.051697,0.073669-0.112854,0.139526-0.165405,0.212524
	c-0.051697,0.073608-0.112854,0.139465-0.165344,0.212402c-0.051575,0.073486-0.11261,0.139099-0.164978,0.211853
	c-0.051697,0.073608-0.112732,0.139343-0.165222,0.21228c-0.051758,0.073669-0.112915,0.139526-0.165405,0.212524
	c-0.051575,0.073486-0.11261,0.139221-0.165039,0.212036c-0.051636,0.073547-0.112732,0.139343-0.165222,0.21228
	c-0.051636,0.073547-0.112732,0.139343-0.165222,0.21228c-0.051819,0.073792-0.113098,0.139648-0.16571,0.21283
	c-0.051514,0.073364-0.112488,0.138977-0.164795,0.21167c-0.051636,0.073547-0.112732,0.139343-0.165222,0.21228
	c-0.051636,0.073547-0.112732,0.139343-0.165222,0.21228c-0.051636,0.073608-0.112732,0.139343-0.165222,0.212219
	c-0.051697,0.073547-0.112732,0.139343-0.165222,0.21228c-0.051697,0.073669-0.112854,0.139526-0.165405,0.212524
	c-0.051575,0.073486-0.112671,0.139221-0.165039,0.212036c-0.051636,0.073608-0.112793,0.139343-0.165222,0.212219
	c-0.051697,0.073669-0.112854,0.139526-0.165405,0.212524c-0.051575,0.073486-0.112671,0.139221-0.165039,0.212036
	c-0.051758,0.07373-0.112915,0.139587-0.165527,0.212646c-0.051636,0.073486-0.11261,0.13916-0.164978,0.211914
	c-0.051697,0.073669-0.112854,0.139526-0.165405,0.212524c-0.051575,0.073486-0.112671,0.13916-0.165039,0.211975
	c-0.051636,0.073547-0.112793,0.139343-0.165222,0.21228c-0.051697,0.073669-0.112854,0.139526-0.165405,0.212524
	c-0.051697,0.073608-0.112854,0.139404-0.165344,0.212341c-0.051636,0.073486-0.11261,0.139099-0.164978,0.211914
	c-0.051636,0.073547-0.112793,0.139343-0.165222,0.21228c-0.051636,0.073547-0.112793,0.139343-0.165222,0.21228
	c-0.051636,0.073547-0.112793,0.139343-0.165222,0.21228c-0.051697,0.073669-0.112854,0.139526-0.165405,0.212524
	c-0.051697,0.073608-0.112854,0.139404-0.165344,0.212341c-0.051636,0.073425-0.11261,0.139099-0.164978,0.211914
	c-0.051636,0.073547-0.112793,0.139343-0.165222,0.21228c-0.051697,0.073669-0.112854,0.139526-0.165405,0.212524
	c-0.051575,0.073425-0.112671,0.139099-0.165039,0.211975c-0.051636,0.073547-0.112793,0.139343-0.165222,0.21228
	c-0.051758,0.07373-0.112915,0.139587-0.165527,0.212646c-0.051697,0.073486-0.112732,0.139282-0.165161,0.212158
	c-0.051575,0.073425-0.11261,0.13916-0.165039,0.211975c-0.051636,0.073547-0.112732,0.139343-0.165222,0.21228
	c-0.051636,0.073547-0.112732,0.139343-0.165222,0.21228c-0.051636,0.073608-0.112793,0.139343-0.165222,0.21228
	c-0.051758,0.07373-0.112915,0.139587-0.165527,0.212646c-0.051697,0.073486-0.112732,0.139282-0.165161,0.212158
	c-0.051575,0.073486-0.11261,0.139099-0.165039,0.211975c-0.051636,0.073608-0.112732,0.139343-0.165222,0.21228
	c-0.051636,0.073608-0.112732,0.139343-0.165222,0.21228c-0.051697,0.073669-0.112915,0.139526-0.165405,0.212524
	c-0.051575,0.073486-0.11261,0.139099-0.165039,0.211975c-0.051697,0.073608-0.112732,0.139343-0.165222,0.21228
	c-0.051758,0.073669-0.112915,0.139526-0.165405,0.212524c-0.051575,0.073486-0.11261,0.139099-0.165039,0.211975
	c-0.051819,0.07373-0.112976,0.139648-0.165527,0.212646c-0.051697,0.073547-0.112732,0.139282-0.165161,0.212158
	c-0.051575,0.073486-0.112732,0.139099-0.1651,0.211975c-0.051697,0.073547-0.112793,0.139343-0.165222,0.21228
	c-0.051697,0.073547-0.112793,0.139343-0.165222,0.21228c-0.051697,0.073547-0.112793,0.139343-0.165222,0.21228
	c-0.051758,0.073669-0.112854,0.139526-0.165344,0.212524c-0.051575,0.073486-0.112732,0.139099-0.1651,0.211975
	c-0.051819,0.07373-0.112976,0.139648-0.165527,0.212708c-0.051575,0.073425-0.112549,0.139099-0.164917,0.211853
	c-0.051697,0.073547-0.112732,0.139343-0.165222,0.21228c-0.051758,0.073669-0.112915,0.139465-0.165405,0.212524
	c-0.051575,0.073486-0.112732,0.13916-0.1651,0.211975c-0.051697,0.073547-0.112793,0.139343-0.165222,0.21228
	c-0.051819,0.073669-0.112915,0.139587-0.165466,0.212646c-0.051636,0.073486-0.112732,0.139221-0.165161,0.212158
	c-4.288513,6.105164-11.293152,9.974426-20.903931,11.369751l-26.86084,3.899414V203.841919l16.358032-21.014404l25.773438-3.741699
	c17.700684-2.569336,25.308594,4.555664,25.308594,21.325195v3.881836c0,7.755432-1.648254,13.803528-5.19519,18.343689
	L178.985474,228.221741z M195.766785,193.00061v108.691406l45.181641-6.558594l16.358032-21.014893v-15.527344l-28.103027,4.080078
	v-93.164551l-17.078613,2.479004L195.766785,193.00061z M293.483215,268.866577V160.175659l-17.078125,2.479004
	l-16.358032,21.014893v108.691406l17.078125-2.479492L293.483215,268.866577z M371.581848,257.529663V148.838257
	l-15.216797,2.208984l-13.383057,17.372986l-4.160889-14.826111l-21.425781,3.110352l-16.358032,21.014404v108.691895
	l15.371094-2.231445l16.19281-20.990906l0.04126-0.005981l5.036438,17.908997l17.544922-2.546875L371.581848,257.529663z
	 M425.406494,261.302429c-4.230042,5.245178-10.630066,8.597412-19.254944,9.849548l-27.015625,3.920898V166.381958
	l16.357056-21.014404l27.015625-3.921875c17.080078-2.479492,25.463867,5.775391,25.463867,23.166016v54.966797
	c0,8.725159-2.113037,15.760986-6.37323,20.921692L425.406494,261.302429z M524.364075,235.350952V126.659546l-17.389648,2.524414
	l-16.358032,21.014893v27.941772l-3.050171,0.442749v-46.582031l-17.078125,2.479492l-16.358032,21.014404v108.691895
	l17.078125-2.479492l16.358032-21.014893v-27.941772l3.050171-0.442749v46.582031l17.389648-2.524414L524.364075,235.350952z
	 M595.010559,131.932007v-15.527344l-46.579102,6.761719l-16.358032,21.014404v108.690918l46.579102-6.76123l16.358032-21.014404
	v-15.527344l-29.5,4.282227V200.65979l7.08728-1.028809l16.358032-21.014404v-15.527344l-23.445312,3.40332v-11.638428
	l13.141968-1.907715L595.010559,131.932007z M595.888855,134.916626v15.527344l17.855469-2.591797v93.164062l17.079102-2.479004
	l16.358032-21.014893v-74.524048l1.497437-0.217407l16.357056-21.014404v-15.527344l-52.789062,7.663086L595.888855,134.916626z"/>
<path style="fill:#EB8E8E;" d="M-129.458984,269.673828l22.047363-3.201172V282l-22.047363,3.201172v44.874023l-17.078613,2.479492
	V223.862793l45.181152-6.558594v15.527344l-28.102539,4.07959V269.673828z M-28.222656,315.378906l-17.234375,2.501953
	l-2.950195-19.291016l-20.960449,3.041992l-2.950195,20.148438l-15.681641,2.276367l17.389648-111.21582l24.997559-3.628906
	L-28.222656,315.378906z M-62.535645,191.017578v14.90625l-14.905762,2.163574v-14.90625L-62.535645,191.017578z
	 M-67.193848,286.56543l16.45752-2.388672l-8.228516-53.772461L-67.193848,286.56543z M-38.936035,187.591309v14.90625
	l-14.905273,2.164062v-14.90625L-38.936035,187.591309z M27.053711,307.354492
	c-0.931641-2.65918-1.552246-4.277344-1.552246-13.12793v-17.080078c0-10.092773-3.416016-13.323242-11.178711-12.196289
	l-5.900391,0.856445v44.25293l-17.079102,2.479492V203.847656l25.773926-3.741699
	c17.700195-2.569336,25.307617,4.555664,25.307617,21.325195v8.540039c0,11.179688-3.570801,18.995605-11.178711,23.671387
	c8.539551,2.332031,11.334473,10.155273,11.334473,21.490234v16.769531c0,5.279297,0.155273,9.138672,1.862793,12.927734
	L27.053711,307.354492z M8.422363,216.895508v33.383789l6.67627-0.969238c6.365723-0.924316,10.247559-4.282715,10.247559-12.978027
	v-10.713867c0-7.763672-2.63916-10.796387-8.694824-9.916992L8.422363,216.895508z M91.024414,237.511719l23.910645-3.470703
	v34.470703c0,17.390625-8.694336,28.589844-25.462891,31.024414c-16.769043,2.43457-25.463379-6.241211-25.463379-23.631836
	v-56.519531c0-17.390625,8.694336-28.590332,25.463379-31.024414c16.768555-2.434082,25.462891,6.241211,25.462891,23.631836
	v10.558594l-16.146973,2.34375v-11.645508c0-7.763672-3.416016-10.217773-8.850098-9.428711
	c-5.43457,0.788574-8.850586,4.234863-8.850586,11.998535v58.692871c0,7.763672,3.416016,10.063477,8.850586,9.274414
	c5.434082-0.789062,8.850098-4.080078,8.850098-11.84375v-20.030273l-7.763672,1.126953V237.511719z M188.688965,200.19873v3.881836
	c0,11.179688-3.416504,18.818359-11.024414,23.493652c9.161133,2.241699,12.731934,9.953125,12.731934,21.443359v8.850586
	c0,16.769531-8.850586,27.05957-25.928711,29.539062l-26.86084,3.899414V182.615234l25.773438-3.741699
	C181.081055,176.304199,188.688965,183.429199,188.688965,200.19873z M154.686035,195.663086v28.725586l6.675781-0.969238
	c6.366211-0.923828,10.247559-4.282227,10.247559-12.977539v-6.055664c0-7.763672-2.63916-10.796387-8.694824-9.91748
	L154.686035,195.663086z M154.686035,239.916016v33.383789l9.781738-1.419922
	c5.744141-0.833984,8.849609-3.924805,8.849609-11.999023v-9.470703c0-10.093262-3.260254-12.725586-11.023926-11.598633
	L154.686035,239.916016z M212.290039,171.773438l17.078613-2.479004v93.164551l28.103027-4.080078v15.527344l-45.181641,6.558594
	V171.773438z M276.570312,162.442383l17.078125-2.479004v108.690918l-17.078125,2.479492V162.442383z M332.931641,184.228516
	v78.723633l-15.371094,2.231445V156.492188l21.425781-3.110352l17.543945,62.512695v-65.05957l15.216797-2.208984v108.691406
	l-17.545898,2.546875L332.931641,184.228516z M395.658203,145.155273l27.015625-3.921875
	c17.080078-2.479492,25.463867,5.775391,25.463867,23.166016v54.966797c0,17.390625-8.383789,28.079102-25.463867,30.558594
	l-27.015625,3.921875V145.155273z M412.737305,158.203125v77.636719l9.626953-1.397461
	c5.433594-0.789062,8.694336-4.057129,8.694336-11.820801v-56.519531c0-7.763672-3.260742-10.085449-8.694336-9.296387
	L412.737305,158.203125z M487.731445,240.480469l-17.078125,2.479492V134.268555l17.078125-2.479492v46.582031l19.408203-2.817383
	V128.97168l17.389648-2.524414v108.691406l-17.389648,2.524414v-46.582031l-19.408203,2.817383V240.480469z M565.675781,166.280273
	l23.445312-3.40332v15.527344l-23.445312,3.40332v31.831055l29.5-4.282227v15.527344l-46.579102,6.761719V122.954102
	l46.579102-6.761719v15.527344l-29.5,4.282227V166.280273z M612.412109,113.689941l52.789062-7.663086v15.527344
	l-17.854492,2.591797v93.164062l-17.079102,2.479492v-93.164062l-17.855469,2.591797V113.689941z"/>
<text transform="matrix(1 -0.145486 0 1 -168.335922 386.691345)" style="fill:#354621; font-family:'Gotham-Light'; font-size:24; letter-spacing:1.979164;">DEN MISSFÖRSTÅDDA OFÖRMÅGAN ATT SE RÄTT FÄRG</text>
</svg>
